<svg xmlns="http://www.w3.org/2000/svg" version="1.1" xmlnsXlink="http://www.w3.org/1999/xlink" xmlnsSvgjs="http://svgjs.dev/svgjs" width="1440" height="560" preserveAspectRatio="none" viewBox="0 0 1440 560"><g mask="url(&quot;#SvgjsMask1042&quot;)" fill="none"><rect width="1440" height="560" x="0" y="0" fill="rgba(69, 121, 108, 1)"></rect><path d="M698.306,530.666C716.539,529.707,732.065,519.094,741.614,503.532C751.7,487.097,756.799,467.004,747.856,449.92C738.333,431.729,718.836,420.444,698.306,420.804C678.343,421.154,661.852,434.428,651.674,451.605C641.258,469.184,635.932,490.946,646.313,508.546C656.568,525.933,678.148,531.727,698.306,530.666" fill="rgba(185, 223, 214, 1)" class="triangle-float1"></path><path d="M793.0202164657384 194.68577609772268L900.4700296857205 215.67819481828332 870.8959195108735 124.65844280654957z" fill="rgba(185, 223, 214, 1)" class="triangle-float2"></path><path d="M1169.983,313.247C1189.594,314.551,1210.125,308.009,1220.412,291.262C1231.112,273.842,1230.01,251.042,1218.62,234.065C1208.299,218.681,1188.506,215.845,1169.983,216.094C1152.03,216.335,1132.55,219.802,1123.557,235.343C1114.554,250.902,1120.765,269.807,1129.967,285.249C1138.899,300.237,1152.573,312.09,1169.983,313.247" fill="rgba(185, 223, 214, 1)" class="triangle-float3"></path><path d="M1131.356,387.418C1179.648,388.926,1227.533,365.27,1249.99,322.49C1271.213,282.061,1254.543,235.599,1231.849,195.977C1208.974,156.039,1177.36,116.762,1131.356,115.369C1083.497,113.92,1042.229,147.284,1019.739,189.554C998.593,229.299,1002.778,276.249,1024.897,315.46C1047.452,355.444,1085.471,385.985,1131.356,387.418" fill="rgba(185, 223, 214, 1)" class="triangle-float3"></path><path d="M1274.5193263924843 74.43989033096713L1242.1429421159899-46.390420754284264 1121.3126310307384-14.014036477789787 1153.689015307233 106.81627460746161z" fill="rgba(185, 223, 214, 1)" class="triangle-float2"></path><path d="M825.7886220476609 20.29311007804506L734.4960860897068-26.222760341417782 779.272751628198 111.58564603599912z" fill="rgba(185, 223, 214, 1)" class="triangle-float2"></path><path d="M9.977295918320713 503.19821619769976L93.49737127027069 425.4631660576017-1.3605763918585012 394.6419505179457z" fill="rgba(185, 223, 214, 1)" class="triangle-float2"></path><path d="M1377.397,346.85C1438.646,350.861,1503.7,327.631,1532.799,273.587C1560.853,221.484,1534.835,161.296,1504.74,110.344C1475.337,60.564,1435.212,10.562,1377.397,10.484C1319.49,10.406,1275.582,58.321,1249.461,110.002C1226.034,156.352,1228.973,209.614,1253.655,255.308C1279.79,303.692,1322.524,343.257,1377.397,346.85" fill="rgba(185, 223, 214, 1)" class="triangle-float1"></path><path d="M131.9078298303028 219.14246877214833L55.81048106706848 204.35064259499006 71.67141618294824 325.8925788284207z" fill="rgba(185, 223, 214, 1)" class="triangle-float3"></path></g><defs><mask id="SvgjsMask1042"><rect width="1440" height="560" fill="#ffffff"></rect></mask><style>
                @keyframes float1 {
                    0%{transform: translate(0, 0)}
                    50%{transform: translate(-10px, 0)}
                    100%{transform: translate(0, 0)}
                }

                .triangle-float1 {
                    animation: float1 5s infinite;
                }

                @keyframes float2 {
                    0%{transform: translate(0, 0)}
                    50%{transform: translate(-5px, -5px)}
                    100%{transform: translate(0, 0)}
                }

                .triangle-float2 {
                    animation: float2 4s infinite;
                }

                @keyframes float3 {
                    0%{transform: translate(0, 0)}
                    50%{transform: translate(0, -10px)}
                    100%{transform: translate(0, 0)}
                }

                .triangle-float3 {
                    animation: float3 6s infinite;
                }
            </style></defs></svg>