<svg xmlns="http://www.w3.org/2000/svg" version="1.1" xmlns:xlink="http://www.w3.org/1999/xlink" xmlns:svgjs="http://svgjs.dev/svgjs" width="1440" height="560" preserveAspectRatio="none" viewBox="0 0 1440 560"><g mask="url(&quot;#SvgjsMask1001&quot;)" fill="none"><rect width="1440" height="560" x="0" y="0" fill="rgba(4, 16, 15, 1)"></rect><path d="M846.74 28.86L891.42 28.86L891.42 57.78L846.74 57.78z" fill="#d3b714"></path><path d="M179.73 145.2a21.63 21.63 0 1 0 43.24-1.54z" fill="#037b0b"></path><path d="M1019.49 246.21 a3.94 3.94 0 1 0 7.88 0 a3.94 3.94 0 1 0 -7.88 0z" stroke="#037b0b"></path><path d="M780.03 114.38 a46.3 46.3 0 1 0 92.6 0 a46.3 46.3 0 1 0 -92.6 0z" stroke="#e73635"></path><path d="M325.05 86.67 a38.4 38.4 0 1 0 76.8 0 a38.4 38.4 0 1 0 -76.8 0z" stroke="#d3b714"></path><path d="M1313.94 234.47a36.41 36.41 0 1 0 53.4-49.51z" stroke="#037b0b"></path><path d="M639.2 324.19a29.04 29.04 0 1 0 14.66 56.2z" stroke="#e73635"></path><path d="M1332.09 420.39a2.67 2.67 0 1 0 0.09 5.34z" stroke="#e73635"></path><path d="M235.31 467.36L275.3 467.36L275.3 507.42L235.31 507.42z" fill="#d3b714"></path><path d="M605.07 537.48 a5.3 5.3 0 1 0 10.6 0 a5.3 5.3 0 1 0 -10.6 0z" fill="#e73635"></path><path d="M823.63 181.71 a32.93 32.93 0 1 0 65.86 0 a32.93 32.93 0 1 0 -65.86 0z" fill="#e73635"></path><path d="M100.11 556.25L149.25 556.25L149.25 605.39L100.11 605.39z" stroke="#d3b714"></path><path d="M634.25 353.13 a13.21 13.21 0 1 0 26.42 0 a13.21 13.21 0 1 0 -26.42 0z" fill="#e73635"></path><path d="M644.74 261.2a16.61 16.61 0 1 0-29.2 15.84z" fill="#e73635"></path><path d="M1353.72 95.43L1356.55 95.43L1356.55 98.26L1353.72 98.26z" stroke="#e73635"></path><path d="M159.13 537.8a48.61 48.61 0 1 0 83.96-49z" stroke="#e73635"></path><path d="M1147.59 393.99L1179 393.99L1179 414.45L1147.59 414.45z" stroke="#d3b714"></path><path d="M569.46 541.68L623.75 541.68L623.75 595.97L569.46 595.97z" fill="#e73635"></path><path d="M63.35 451.39L87.65 451.39L87.65 467.94L63.35 467.94z" stroke="#e73635"></path><path d="M1373.11 393.96 a45.34 45.34 0 1 0 90.68 0 a45.34 45.34 0 1 0 -90.68 0z" stroke="#e73635"></path><path d="M703.09 540.96 a30.37 30.37 0 1 0 60.74 0 a30.37 30.37 0 1 0 -60.74 0z" stroke="#037b0b"></path><path d="M176.14 122.49L209.1 122.49L209.1 177.83L176.14 177.83z" stroke="#d3b714"></path><path d="M411.82 178.54L463.01 178.54L463.01 229.73L411.82 229.73z" fill="#d3b714"></path><path d="M22.92 15.76L65.24 15.76L65.24 46.49L22.92 46.49z" stroke="#e73635"></path><path d="M621.57 197.75a22.76 22.76 0 1 0-11.13-44.14z" fill="#e73635"></path><path d="M121.01 513.08L155.71 513.08L155.71 547.78L121.01 547.78z" stroke="#037b0b"></path><path d="M1127.35 210.91L1156.62 210.91L1156.62 240.18L1127.35 240.18z" fill="#d3b714"></path><path d="M289.96 317.27 a39.55 39.55 0 1 0 79.1 0 a39.55 39.55 0 1 0 -79.1 0z" stroke="#d3b714"></path><path d="M1137.93 311.68L1147.2 311.68L1147.2 364.26L1137.93 364.26z" stroke="#037b0b"></path><path d="M1270.38 459.77L1273.09 459.77L1273.09 496.09L1270.38 496.09z" stroke="#d3b714"></path><path d="M1314.14 420.74L1317.79 420.74L1317.79 424.39L1314.14 424.39z" fill="#037b0b"></path><path d="M701.24 31.68L752 31.68L752 82.44L701.24 82.44z" stroke="#037b0b"></path><path d="M1061.62 202.26L1090.93 202.26L1090.93 255.77L1061.62 255.77z" stroke="#e73635"></path></g><defs><mask id="SvgjsMask1001"><rect width="1440" height="560" fill="#ffffff"></rect></mask></defs></svg>