<svg xmlns="http://www.w3.org/2000/svg" version="1.1" xmlns:xlink="http://www.w3.org/1999/xlink" xmlns:svgjs="http://svgjs.dev/svgjs" width="1440" height="660" preserveAspectRatio="none" viewBox="0 0 1440 660"><g mask="url(&quot;#SvgjsMask1012&quot;)" fill="none"><rect width="1440" height="660" x="0" y="0" fill="rgba(4, 16, 15, 1)"></rect><path d="M194.12 357.93L194.12 361.66L216.26 361.66L216.26 357.93zM209.66 359.8 a6.6 6.6 0 1 0 13.2 0 a6.6 6.6 0 1 0 -13.2 0zM189.42 385.31L187.99 388.75L203 394.97L204.43 391.53zM197.12 393.25 a6.6 6.6 0 1 0 13.2 0 a6.6 6.6 0 1 0 -13.2 0zM174.59 408.8L171.96 411.44L182.49 421.97L185.13 419.34zM177.21 420.66 a6.6 6.6 0 1 0 13.2 0 a6.6 6.6 0 1 0 -13.2 0zM151.91 424.84L148.47 426.26L160.31 454.85L163.75 453.42zM155.43 454.13 a6.6 6.6 0 1 0 13.2 0 a6.6 6.6 0 1 0 -13.2 0zM124.82 430.97L121.09 430.97L121.09 462.72L124.82 462.72zM116.35 462.72 a6.6 6.6 0 1 0 13.2 0 a6.6 6.6 0 1 0 -13.2 0zM97.44 426.26L94 424.84L85.13 446.24L88.57 447.67zM80.25 446.95 a6.6 6.6 0 1 0 13.2 0 a6.6 6.6 0 1 0 -13.2 0zM73.95 411.44L71.31 408.8L62 418.11L64.64 420.74zM56.72 419.43 a6.6 6.6 0 1 0 13.2 0 a6.6 6.6 0 1 0 -13.2 0zM57.91 388.75L56.49 385.31L34.43 394.45L35.85 397.89zM28.54 396.17 a6.6 6.6 0 1 0 13.2 0 a6.6 6.6 0 1 0 -13.2 0zM51.78 361.66L51.78 357.93L30.7 357.93L30.7 361.66zM24.1 359.8 a6.6 6.6 0 1 0 13.2 0 a6.6 6.6 0 1 0 -13.2 0zM56.49 334.28L57.91 330.84L34.83 321.28L33.4 324.72zM27.51 323 a6.6 6.6 0 1 0 13.2 0 a6.6 6.6 0 1 0 -13.2 0zM71.31 310.79L73.95 308.15L61.91 296.12L59.28 298.76zM53.99 297.44 a6.6 6.6 0 1 0 13.2 0 a6.6 6.6 0 1 0 -13.2 0zM94 294.76L97.44 293.33L86.65 267.3L83.21 268.72zM78.33 268.01 a6.6 6.6 0 1 0 13.2 0 a6.6 6.6 0 1 0 -13.2 0zM121.09 288.63L124.82 288.63L124.82 262.78L121.09 262.78zM116.35 262.78 a6.6 6.6 0 1 0 13.2 0 a6.6 6.6 0 1 0 -13.2 0zM148.47 293.33L151.91 294.76L158.58 278.65L155.14 277.22zM150.26 277.93 a6.6 6.6 0 1 0 13.2 0 a6.6 6.6 0 1 0 -13.2 0zM171.96 308.15L174.59 310.79L189.29 296.1L186.65 293.46zM181.37 294.78 a6.6 6.6 0 1 0 13.2 0 a6.6 6.6 0 1 0 -13.2 0zM187.99 330.84L189.42 334.28L211.35 325.2L209.92 321.75zM204.04 323.48 a6.6 6.6 0 1 0 13.2 0 a6.6 6.6 0 1 0 -13.2 0zM51.76 359.8 a71.19 71.19 0 1 0 142.38 0 a71.19 71.19 0 1 0 -142.38 0z" fill="rgba(34, 119, 113, 1)"></path><path d="M188.15 331.2 A70.1936 70.1936 0 0 1 115.26 430.57M115.26 430.57 A142.3872 142.3872 0 0 0 188.15 331.2" fill="#1b5f5a" fill-rule="nonzero"></path><path d="M109.93 298.57 a9.26 9.26 0 1 0 18.52 0 a9.26 9.26 0 1 0 -18.52 0zM168.48 392.98 a7.83 7.83 0 1 0 15.66 0 a7.83 7.83 0 1 0 -15.66 0zM177.75 364.97 a7.12 7.12 0 1 0 14.24 0 a7.12 7.12 0 1 0 -14.24 0zM171.68 334.84 a8.54 8.54 0 1 0 17.08 0 a8.54 8.54 0 1 0 -17.08 0zM92.51 416.26 a10.68 10.68 0 1 0 21.36 0 a10.68 10.68 0 1 0 -21.36 0zM52.75 367.01 a6.41 6.41 0 1 0 12.82 0 a6.41 6.41 0 1 0 -12.82 0zM121.01 375.22 a14.24 14.24 0 1 0 28.48 0 a14.24 14.24 0 1 0 -28.48 0zM105.7 333.24 a10.68 10.68 0 1 0 21.36 0 a10.68 10.68 0 1 0 -21.36 0zM152.14 408.69 a3.56 3.56 0 1 0 7.12 0 a3.56 3.56 0 1 0 -7.12 0zM77.36 355.51 a6.41 6.41 0 1 0 12.82 0 a6.41 6.41 0 1 0 -12.82 0z" fill="#1b5f5a" fill-rule="nonzero"></path><path d="M912.56 537.34L912.56 541.06L936.97 541.06L936.97 537.34zM930.37 539.2 a6.6 6.6 0 1 0 13.2 0 a6.6 6.6 0 1 0 -13.2 0zM907.85 564.71L906.43 568.16L918.24 573.05L919.66 569.6zM912.35 571.33 a6.6 6.6 0 1 0 13.2 0 a6.6 6.6 0 1 0 -13.2 0zM893.03 588.21L890.4 590.84L899.44 599.89L902.08 597.25zM894.16 598.57 a6.6 6.6 0 1 0 13.2 0 a6.6 6.6 0 1 0 -13.2 0zM870.35 604.24L866.9 605.67L879.16 635.25L882.6 633.82zM874.28 634.53 a6.6 6.6 0 1 0 13.2 0 a6.6 6.6 0 1 0 -13.2 0zM843.25 610.37L839.53 610.37L839.53 636.22L843.25 636.22zM834.79 636.22 a6.6 6.6 0 1 0 13.2 0 a6.6 6.6 0 1 0 -13.2 0zM815.88 605.67L812.43 604.24L807.79 615.45L811.23 616.87zM802.91 616.16 a6.6 6.6 0 1 0 13.2 0 a6.6 6.6 0 1 0 -13.2 0zM792.38 590.84L789.75 588.21L777.03 600.93L779.66 603.56zM771.74 602.25 a6.6 6.6 0 1 0 13.2 0 a6.6 6.6 0 1 0 -13.2 0zM776.35 568.16L774.92 564.71L761.21 570.39L762.64 573.84zM755.33 572.11 a6.6 6.6 0 1 0 13.2 0 a6.6 6.6 0 1 0 -13.2 0zM770.22 541.06L770.22 537.34L750.79 537.34L750.79 541.06zM744.19 539.2 a6.6 6.6 0 1 0 13.2 0 a6.6 6.6 0 1 0 -13.2 0zM774.92 513.69L776.35 510.24L751.02 499.75L749.59 503.19zM743.71 501.47 a6.6 6.6 0 1 0 13.2 0 a6.6 6.6 0 1 0 -13.2 0zM789.75 490.19L792.38 487.56L772.85 468.03L770.22 470.66zM764.94 469.35 a6.6 6.6 0 1 0 13.2 0 a6.6 6.6 0 1 0 -13.2 0zM812.43 474.16L815.88 472.74L808.68 455.37L805.24 456.79zM800.36 456.08 a6.6 6.6 0 1 0 13.2 0 a6.6 6.6 0 1 0 -13.2 0zM839.53 468.03L843.25 468.03L843.25 433.53L839.53 433.53zM834.79 433.53 a6.6 6.6 0 1 0 13.2 0 a6.6 6.6 0 1 0 -13.2 0zM866.9 472.74L870.35 474.16L879.29 452.56L875.85 451.13zM870.97 451.85 a6.6 6.6 0 1 0 13.2 0 a6.6 6.6 0 1 0 -13.2 0zM890.4 487.56L893.03 490.19L908.56 474.67L905.92 472.03zM900.64 473.35 a6.6 6.6 0 1 0 13.2 0 a6.6 6.6 0 1 0 -13.2 0zM906.43 510.24L907.85 513.69L925.58 506.34L924.16 502.9zM918.27 504.62 a6.6 6.6 0 1 0 13.2 0 a6.6 6.6 0 1 0 -13.2 0zM770.2 539.2 a71.19 71.19 0 1 0 142.38 0 a71.19 71.19 0 1 0 -142.38 0z" fill="rgba(34, 119, 113, 1)"></path><path d="M782.85 579.72 A70.1936 70.1936 0 0 1 835.42 468.26M835.42 468.26 A142.3872 142.3872 0 0 0 782.85 579.72" fill="#1b5f5a" fill-rule="nonzero"></path><path d="M777.13 511.33 a5.7 5.7 0 1 0 11.4 0 a5.7 5.7 0 1 0 -11.4 0zM805.38 534.24 a14.24 14.24 0 1 0 28.48 0 a14.24 14.24 0 1 0 -28.48 0zM789.83 581.14 a14.24 14.24 0 1 0 28.48 0 a14.24 14.24 0 1 0 -28.48 0zM850.31 574.59 a14.24 14.24 0 1 0 28.48 0 a14.24 14.24 0 1 0 -28.48 0zM774 561.46 a2.85 2.85 0 1 0 5.7 0 a2.85 2.85 0 1 0 -5.7 0zM824.56 495.74 a14.24 14.24 0 1 0 28.48 0 a14.24 14.24 0 1 0 -28.48 0zM889.78 527.32 a10.68 10.68 0 1 0 21.36 0 a10.68 10.68 0 1 0 -21.36 0zM853.67 522.85 a4.27 4.27 0 1 0 8.54 0 a4.27 4.27 0 1 0 -8.54 0zM863.71 480.57 a3.56 3.56 0 1 0 7.12 0 a3.56 3.56 0 1 0 -7.12 0zM887.58 553.67 a2.85 2.85 0 1 0 5.7 0 a2.85 2.85 0 1 0 -5.7 0z" fill="#1b5f5a" fill-rule="nonzero"></path><path d="M602.49 514.28L602.49 517.54L621.52 517.54L621.52 514.28zM615.74 515.91 a5.78 5.78 0 1 0 11.56 0 a5.78 5.78 0 1 0 -11.56 0zM598.38 538.24L597.13 541.25L613.31 547.95L614.56 544.94zM608.16 546.45 a5.78 5.78 0 1 0 11.56 0 a5.78 5.78 0 1 0 -11.56 0zM585.41 558.79L583.1 561.1L589.19 567.19L591.49 564.88zM584.56 566.03 a5.78 5.78 0 1 0 11.56 0 a5.78 5.78 0 1 0 -11.56 0zM565.56 572.82L562.54 574.07L571.27 595.14L574.29 593.89zM567 594.52 a5.78 5.78 0 1 0 11.56 0 a5.78 5.78 0 1 0 -11.56 0zM541.85 578.18L538.59 578.18L538.59 607.66L541.85 607.66zM534.44 607.66 a5.78 5.78 0 1 0 11.56 0 a5.78 5.78 0 1 0 -11.56 0zM517.89 574.07L514.88 572.82L510.17 584.2L513.18 585.45zM505.89 584.83 a5.78 5.78 0 1 0 11.56 0 a5.78 5.78 0 1 0 -11.56 0zM497.34 561.1L495.03 558.79L475.37 578.45L477.68 580.76zM470.75 579.6 a5.78 5.78 0 1 0 11.56 0 a5.78 5.78 0 1 0 -11.56 0zM483.31 541.25L482.06 538.24L471.17 542.75L472.42 545.76zM466.01 544.25 a5.78 5.78 0 1 0 11.56 0 a5.78 5.78 0 1 0 -11.56 0zM477.95 517.54L477.95 514.28L462.15 514.28L462.15 517.54zM456.37 515.91 a5.78 5.78 0 1 0 11.56 0 a5.78 5.78 0 1 0 -11.56 0zM482.06 493.59L483.31 490.57L472.31 486.02L471.06 489.03zM465.9 487.52 a5.78 5.78 0 1 0 11.56 0 a5.78 5.78 0 1 0 -11.56 0zM495.03 473.03L497.34 470.72L481.67 455.06L479.36 457.36zM474.74 456.21 a5.78 5.78 0 1 0 11.56 0 a5.78 5.78 0 1 0 -11.56 0zM514.88 459L517.89 457.75L511.22 441.65L508.21 442.9zM503.94 442.28 a5.78 5.78 0 1 0 11.56 0 a5.78 5.78 0 1 0 -11.56 0zM538.59 453.64L541.85 453.64L541.85 427.33L538.59 427.33zM534.44 427.33 a5.78 5.78 0 1 0 11.56 0 a5.78 5.78 0 1 0 -11.56 0zM562.54 457.75L565.56 459L574.84 436.58L571.83 435.33zM567.56 435.96 a5.78 5.78 0 1 0 11.56 0 a5.78 5.78 0 1 0 -11.56 0zM583.1 470.72L585.41 473.03L598.82 459.62L596.51 457.31zM591.89 458.46 a5.78 5.78 0 1 0 11.56 0 a5.78 5.78 0 1 0 -11.56 0zM597.13 490.57L598.38 493.59L610.39 488.61L609.14 485.6zM603.98 487.11 a5.78 5.78 0 1 0 11.56 0 a5.78 5.78 0 1 0 -11.56 0zM477.93 515.91 a62.29 62.29 0 1 0 124.58 0 a62.29 62.29 0 1 0 -124.58 0z" fill="rgba(34, 119, 113, 1)"></path><path d="M564.72 458.64 A61.294399999999996 61.294399999999996 0 0 1 577.67 565.69M577.67 565.69 A124.58879999999999 124.58879999999999 0 0 0 564.72 458.64" fill="#1b5f5a" fill-rule="nonzero"></path><path d="M549.38 554.76 a12.46 12.46 0 1 0 24.92 0 a12.46 12.46 0 1 0 -24.92 0zM490.84 481.55 a8.1 8.1 0 1 0 16.2 0 a8.1 8.1 0 1 0 -16.2 0zM478.75 524.56 a4.36 4.36 0 1 0 8.72 0 a4.36 4.36 0 1 0 -8.72 0zM536.89 488.64 a12.46 12.46 0 1 0 24.92 0 a12.46 12.46 0 1 0 -24.92 0zM515.34 527.53 a12.46 12.46 0 1 0 24.92 0 a12.46 12.46 0 1 0 -24.92 0zM538.31 460.57 a3.74 3.74 0 1 0 7.48 0 a3.74 3.74 0 1 0 -7.48 0zM516.48 460.46 a2.49 2.49 0 1 0 4.98 0 a2.49 2.49 0 1 0 -4.98 0zM579.19 523.64 a11.21 11.21 0 1 0 22.42 0 a11.21 11.21 0 1 0 -22.42 0zM494.07 556.48 a3.11 3.11 0 1 0 6.22 0 a3.11 3.11 0 1 0 -6.22 0zM552.42 516.84 a3.74 3.74 0 1 0 7.48 0 a3.74 3.74 0 1 0 -7.48 0z" fill="#1b5f5a" fill-rule="nonzero"></path><path d="M320.1 97.78L320.1 100.58L342.39 100.58L342.39 97.78zM337.44 99.18 a4.95 4.95 0 1 0 9.9 0 a4.95 4.95 0 1 0 -9.9 0zM316.58 118.32L315.51 120.9L339.64 130.9L340.71 128.31zM335.22 129.6 a4.95 4.95 0 1 0 9.9 0 a4.95 4.95 0 1 0 -9.9 0zM305.46 135.94L303.48 137.91L320.27 154.7L322.25 152.72zM316.31 153.71 a4.95 4.95 0 1 0 9.9 0 a4.95 4.95 0 1 0 -9.9 0zM288.44 147.96L285.86 149.03L291.5 162.63L294.08 161.56zM287.84 162.1 a4.95 4.95 0 1 0 9.9 0 a4.95 4.95 0 1 0 -9.9 0zM268.12 152.56L265.33 152.56L265.33 165.38L268.12 165.38zM261.78 165.38 a4.95 4.95 0 1 0 9.9 0 a4.95 4.95 0 1 0 -9.9 0zM247.59 149.03L245.01 147.96L237.37 166.39L239.96 167.46zM233.72 166.93 a4.95 4.95 0 1 0 9.9 0 a4.95 4.95 0 1 0 -9.9 0zM229.97 137.91L228 135.94L210.1 153.83L212.08 155.81zM206.14 154.82 a4.95 4.95 0 1 0 9.9 0 a4.95 4.95 0 1 0 -9.9 0zM217.95 120.9L216.88 118.32L206.24 122.72L207.31 125.3zM201.83 124.01 a4.95 4.95 0 1 0 9.9 0 a4.95 4.95 0 1 0 -9.9 0zM213.35 100.58L213.35 97.78L205.62 97.78L205.62 100.58zM200.67 99.18 a4.95 4.95 0 1 0 9.9 0 a4.95 4.95 0 1 0 -9.9 0zM216.88 80.05L217.95 77.46L202.09 70.9L201.02 73.48zM196.61 72.19 a4.95 4.95 0 1 0 9.9 0 a4.95 4.95 0 1 0 -9.9 0zM228 62.43L229.97 60.45L214.1 44.58L212.12 46.55zM208.16 45.56 a4.95 4.95 0 1 0 9.9 0 a4.95 4.95 0 1 0 -9.9 0zM245.01 50.4L247.59 49.33L238.3 26.91L235.72 27.98zM232.06 27.45 a4.95 4.95 0 1 0 9.9 0 a4.95 4.95 0 1 0 -9.9 0zM265.33 45.81L268.12 45.81L268.12 19.54L265.33 19.54zM261.78 19.54 a4.95 4.95 0 1 0 9.9 0 a4.95 4.95 0 1 0 -9.9 0zM285.86 49.33L288.44 50.4L296.05 32.04L293.47 30.97zM289.81 31.5 a4.95 4.95 0 1 0 9.9 0 a4.95 4.95 0 1 0 -9.9 0zM303.48 60.45L305.46 62.43L322.83 45.05L320.86 43.08zM316.89 44.07 a4.95 4.95 0 1 0 9.9 0 a4.95 4.95 0 1 0 -9.9 0zM315.51 77.46L316.58 80.05L322.82 77.46L321.75 74.88zM317.34 76.17 a4.95 4.95 0 1 0 9.9 0 a4.95 4.95 0 1 0 -9.9 0zM213.33 99.18 a53.4 53.4 0 1 0 106.8 0 a53.4 53.4 0 1 0 -106.8 0z" fill="rgba(34, 119, 113, 1)"></path><path d="M302.65 138.69 A52.3952 52.3952 0 0 1 214.58 110.65M214.58 110.65 A106.7904 106.7904 0 0 0 302.65 138.69" fill="#1b5f5a" fill-rule="nonzero"></path><path d="M287.91 88.96 a10.68 10.68 0 1 0 21.36 0 a10.68 10.68 0 1 0 -21.36 0zM260.14 128.87 a10.68 10.68 0 1 0 21.36 0 a10.68 10.68 0 1 0 -21.36 0zM238.07 80.68 a10.68 10.68 0 1 0 21.36 0 a10.68 10.68 0 1 0 -21.36 0zM275.24 67.59 a5.87 5.87 0 1 0 11.74 0 a5.87 5.87 0 1 0 -11.74 0zM233.3 109.4 a8.01 8.01 0 1 0 16.02 0 a8.01 8.01 0 1 0 -16.02 0zM267.73 102.52 a4.81 4.81 0 1 0 9.62 0 a4.81 4.81 0 1 0 -9.62 0zM305.55 124.58 a3.74 3.74 0 1 0 7.48 0 a3.74 3.74 0 1 0 -7.48 0zM224.18 129.78 a4.81 4.81 0 1 0 9.62 0 a4.81 4.81 0 1 0 -9.62 0zM249.97 52.05 a4.27 4.27 0 1 0 8.54 0 a4.27 4.27 0 1 0 -8.54 0zM287.2 111.4 a2.67 2.67 0 1 0 5.34 0 a2.67 2.67 0 1 0 -5.34 0z" fill="#1b5f5a" fill-rule="nonzero"></path><path d="M1150.68 265.56L1150.68 269.28L1162.91 269.28L1162.91 265.56zM1156.31 267.42 a6.6 6.6 0 1 0 13.2 0 a6.6 6.6 0 1 0 -13.2 0zM1145.98 292.93L1144.55 296.38L1170.87 307.28L1172.3 303.84zM1164.98 305.56 a6.6 6.6 0 1 0 13.2 0 a6.6 6.6 0 1 0 -13.2 0zM1131.15 316.43L1128.52 319.06L1150.59 341.14L1153.23 338.5zM1145.31 339.82 a6.6 6.6 0 1 0 13.2 0 a6.6 6.6 0 1 0 -13.2 0zM1108.47 332.46L1105.02 333.89L1118.24 365.79L1121.68 364.36zM1113.36 365.07 a6.6 6.6 0 1 0 13.2 0 a6.6 6.6 0 1 0 -13.2 0zM1081.37 338.59L1077.65 338.59L1077.65 369.75L1081.37 369.75zM1072.91 369.75 a6.6 6.6 0 1 0 13.2 0 a6.6 6.6 0 1 0 -13.2 0zM1054 333.89L1050.55 332.46L1045.51 344.63L1048.96 346.05zM1040.64 345.34 a6.6 6.6 0 1 0 13.2 0 a6.6 6.6 0 1 0 -13.2 0zM1030.5 319.06L1027.87 316.43L1009.99 334.31L1012.62 336.95zM1004.7 335.63 a6.6 6.6 0 1 0 13.2 0 a6.6 6.6 0 1 0 -13.2 0zM1014.47 296.38L1013.05 292.93L986.18 304.06L987.61 307.51zM980.29 305.78 a6.6 6.6 0 1 0 13.2 0 a6.6 6.6 0 1 0 -13.2 0zM1008.34 269.28L1008.34 265.56L986.62 265.56L986.62 269.28zM980.02 267.42 a6.6 6.6 0 1 0 13.2 0 a6.6 6.6 0 1 0 -13.2 0zM1013.05 241.91L1014.47 238.46L986.05 226.69L984.63 230.14zM978.74 228.41 a6.6 6.6 0 1 0 13.2 0 a6.6 6.6 0 1 0 -13.2 0zM1027.87 218.41L1030.5 215.78L1008.46 193.74L1005.83 196.37zM1000.55 195.06 a6.6 6.6 0 1 0 13.2 0 a6.6 6.6 0 1 0 -13.2 0zM1050.55 202.38L1054 200.96L1044.98 179.19L1041.54 180.62zM1036.66 179.9 a6.6 6.6 0 1 0 13.2 0 a6.6 6.6 0 1 0 -13.2 0zM1077.65 196.25L1081.37 196.25L1081.37 178.82L1077.65 178.82zM1072.91 178.82 a6.6 6.6 0 1 0 13.2 0 a6.6 6.6 0 1 0 -13.2 0zM1105.02 200.96L1108.47 202.38L1113.86 189.36L1110.42 187.93zM1105.54 188.64 a6.6 6.6 0 1 0 13.2 0 a6.6 6.6 0 1 0 -13.2 0zM1128.52 215.78L1131.15 218.41L1140.95 208.62L1138.31 205.99zM1133.03 207.3 a6.6 6.6 0 1 0 13.2 0 a6.6 6.6 0 1 0 -13.2 0zM1144.55 238.46L1145.98 241.91L1157.32 237.21L1155.89 233.76zM1150.01 235.49 a6.6 6.6 0 1 0 13.2 0 a6.6 6.6 0 1 0 -13.2 0zM1008.32 267.42 a71.19 71.19 0 1 0 142.38 0 a71.19 71.19 0 1 0 -142.38 0z" fill="rgba(34, 119, 113, 1)"></path><path d="M1116.21 206.41 A70.1936 70.1936 0 0 1 1114.12 329.63M1114.12 329.63 A142.3872 142.3872 0 0 0 1116.21 206.41" fill="#1b5f5a" fill-rule="nonzero"></path><path d="M1065.42 231.66 a14.24 14.24 0 1 0 28.48 0 a14.24 14.24 0 1 0 -28.48 0zM1021.93 228.57 a7.83 7.83 0 1 0 15.66 0 a7.83 7.83 0 1 0 -15.66 0zM1070 301.15 a14.24 14.24 0 1 0 28.48 0 a14.24 14.24 0 1 0 -28.48 0zM1022.09 301.79 a14.24 14.24 0 1 0 28.48 0 a14.24 14.24 0 1 0 -28.48 0zM1023.82 264.47 a8.54 8.54 0 1 0 17.08 0 a8.54 8.54 0 1 0 -17.08 0zM1115.89 244.18 a14.24 14.24 0 1 0 28.48 0 a14.24 14.24 0 1 0 -28.48 0zM1113.83 210.34 a2.85 2.85 0 1 0 5.7 0 a2.85 2.85 0 1 0 -5.7 0zM1115.64 298.58 a12.81 12.81 0 1 0 25.62 0 a12.81 12.81 0 1 0 -25.62 0zM1091.74 270.95 a2.85 2.85 0 1 0 5.7 0 a2.85 2.85 0 1 0 -5.7 0zM1055.6 262.61 a4.27 4.27 0 1 0 8.54 0 a4.27 4.27 0 1 0 -8.54 0z" fill="#1b5f5a" fill-rule="nonzero"></path><path d="M1411.45 341.44L1411.45 343.77L1418.48 343.77L1418.48 341.44zM1414.35 342.61 a4.13 4.13 0 1 0 8.26 0 a4.13 4.13 0 1 0 -8.26 0zM1408.51 358.55L1407.62 360.71L1427.52 368.95L1428.41 366.8zM1423.84 367.87 a4.13 4.13 0 1 0 8.26 0 a4.13 4.13 0 1 0 -8.26 0zM1399.25 373.24L1397.6 374.88L1409.06 386.35L1410.71 384.7zM1405.76 385.52 a4.13 4.13 0 1 0 8.26 0 a4.13 4.13 0 1 0 -8.26 0zM1385.07 383.26L1382.92 384.15L1385.3 389.9L1387.45 389.01zM1382.25 389.46 a4.13 4.13 0 1 0 8.26 0 a4.13 4.13 0 1 0 -8.26 0zM1368.14 387.09L1365.81 387.09L1365.81 396.97L1368.14 396.97zM1362.84 396.97 a4.13 4.13 0 1 0 8.26 0 a4.13 4.13 0 1 0 -8.26 0zM1351.02 384.15L1348.87 383.26L1345.42 391.58L1347.58 392.47zM1342.37 392.03 a4.13 4.13 0 1 0 8.26 0 a4.13 4.13 0 1 0 -8.26 0zM1336.34 374.88L1334.69 373.24L1330.14 377.79L1331.79 379.44zM1326.83 378.61 a4.13 4.13 0 1 0 8.26 0 a4.13 4.13 0 1 0 -8.26 0zM1326.32 360.71L1325.43 358.55L1316.51 362.25L1317.41 364.4zM1312.83 363.32 a4.13 4.13 0 1 0 8.26 0 a4.13 4.13 0 1 0 -8.26 0zM1322.49 343.77L1322.49 341.44L1313.61 341.44L1313.61 343.77zM1309.48 342.61 a4.13 4.13 0 1 0 8.26 0 a4.13 4.13 0 1 0 -8.26 0zM1325.43 326.66L1326.32 324.51L1316.04 320.25L1315.15 322.4zM1311.46 321.33 a4.13 4.13 0 1 0 8.26 0 a4.13 4.13 0 1 0 -8.26 0zM1334.69 311.98L1336.34 310.33L1327.86 301.85L1326.21 303.49zM1322.9 302.67 a4.13 4.13 0 1 0 8.26 0 a4.13 4.13 0 1 0 -8.26 0zM1348.87 301.96L1351.02 301.07L1347.61 292.83L1345.46 293.73zM1342.41 293.28 a4.13 4.13 0 1 0 8.26 0 a4.13 4.13 0 1 0 -8.26 0zM1365.81 298.13L1368.14 298.13L1368.14 286.5L1365.81 286.5zM1362.84 286.5 a4.13 4.13 0 1 0 8.26 0 a4.13 4.13 0 1 0 -8.26 0zM1382.92 301.07L1385.07 301.96L1388.25 294.28L1386.1 293.39zM1383.04 293.83 a4.13 4.13 0 1 0 8.26 0 a4.13 4.13 0 1 0 -8.26 0zM1397.6 310.33L1399.25 311.98L1409.12 302.11L1407.47 300.46zM1404.16 301.28 a4.13 4.13 0 1 0 8.26 0 a4.13 4.13 0 1 0 -8.26 0zM1407.62 324.51L1408.51 326.66L1423.23 320.56L1422.34 318.41zM1418.65 319.49 a4.13 4.13 0 1 0 8.26 0 a4.13 4.13 0 1 0 -8.26 0zM1322.47 342.61 a44.5 44.5 0 1 0 89 0 a44.5 44.5 0 1 0 -89 0z" fill="rgba(34, 119, 113, 1)"></path><path d="M1332.1 370.25 A43.496 43.496 0 0 1 1360.37 298.6M1360.37 298.6 A88.992 88.992 0 0 0 1332.1 370.25" fill="#1b5f5a" fill-rule="nonzero"></path><path d="M1326.73 359.44 a7.56 7.56 0 1 0 15.12 0 a7.56 7.56 0 1 0 -15.12 0zM1340.39 311.33 a8.01 8.01 0 1 0 16.02 0 a8.01 8.01 0 1 0 -16.02 0zM1347.42 336.85 a8.9 8.9 0 1 0 17.8 0 a8.9 8.9 0 1 0 -17.8 0zM1401.86 352.28 a4 4 0 1 0 8 0 a4 4 0 1 0 -8 0zM1363.91 380.71 a6.23 6.23 0 1 0 12.46 0 a6.23 6.23 0 1 0 -12.46 0zM1383.38 336.86 a8.01 8.01 0 1 0 16.02 0 a8.01 8.01 0 1 0 -16.02 0zM1365.63 315.14 a8.9 8.9 0 1 0 17.8 0 a8.9 8.9 0 1 0 -17.8 0zM1363.67 356.04 a4.45 4.45 0 1 0 8.9 0 a4.45 4.45 0 1 0 -8.9 0zM1351.45 363.91 a2.67 2.67 0 1 0 5.34 0 a2.67 2.67 0 1 0 -5.34 0zM1331.15 326.79 a3.56 3.56 0 1 0 7.12 0 a3.56 3.56 0 1 0 -7.12 0z" fill="#1b5f5a" fill-rule="nonzero"></path><path d="M913.61 106.52L913.61 108.85L925.1 108.85L925.1 106.52zM920.97 107.69 a4.13 4.13 0 1 0 8.26 0 a4.13 4.13 0 1 0 -8.26 0zM910.67 123.63L909.77 125.78L926.03 132.52L926.93 130.37zM922.35 131.44 a4.13 4.13 0 1 0 8.26 0 a4.13 4.13 0 1 0 -8.26 0zM901.4 138.31L899.75 139.96L906.09 146.3L907.74 144.65zM902.78 145.47 a4.13 4.13 0 1 0 8.26 0 a4.13 4.13 0 1 0 -8.26 0zM887.22 148.33L885.07 149.23L892.96 168.28L895.11 167.39zM889.91 167.83 a4.13 4.13 0 1 0 8.26 0 a4.13 4.13 0 1 0 -8.26 0zM870.29 152.17L867.96 152.17L867.96 163.49L870.29 163.49zM864.99 163.49 a4.13 4.13 0 1 0 8.26 0 a4.13 4.13 0 1 0 -8.26 0zM853.18 149.23L851.03 148.33L843.82 165.74L845.97 166.63zM840.76 166.19 a4.13 4.13 0 1 0 8.26 0 a4.13 4.13 0 1 0 -8.26 0zM838.5 139.96L836.85 138.31L825.29 149.88L826.93 151.52zM821.98 150.7 a4.13 4.13 0 1 0 8.26 0 a4.13 4.13 0 1 0 -8.26 0zM828.48 125.78L827.58 123.63L810.52 130.7L811.41 132.85zM806.84 131.78 a4.13 4.13 0 1 0 8.26 0 a4.13 4.13 0 1 0 -8.26 0zM824.64 108.85L824.64 106.52L812.23 106.52L812.23 108.85zM808.1 107.69 a4.13 4.13 0 1 0 8.26 0 a4.13 4.13 0 1 0 -8.26 0zM827.58 91.74L828.48 89.59L811.9 82.72L811.01 84.87zM807.33 83.8 a4.13 4.13 0 1 0 8.26 0 a4.13 4.13 0 1 0 -8.26 0zM836.85 77.06L838.5 75.41L831.74 68.66L830.1 70.3zM826.79 69.48 a4.13 4.13 0 1 0 8.26 0 a4.13 4.13 0 1 0 -8.26 0zM851.03 67.04L853.18 66.14L846.11 49.07L843.95 49.96zM840.9 49.52 a4.13 4.13 0 1 0 8.26 0 a4.13 4.13 0 1 0 -8.26 0zM867.96 63.2L870.29 63.2L870.29 56.61L867.96 56.61zM864.99 56.61 a4.13 4.13 0 1 0 8.26 0 a4.13 4.13 0 1 0 -8.26 0zM885.07 66.14L887.22 67.04L890.41 59.34L888.26 58.45zM885.2 58.89 a4.13 4.13 0 1 0 8.26 0 a4.13 4.13 0 1 0 -8.26 0zM899.75 75.41L901.4 77.06L906 72.46L904.35 70.81zM901.04 71.64 a4.13 4.13 0 1 0 8.26 0 a4.13 4.13 0 1 0 -8.26 0zM909.77 89.59L910.67 91.74L926.03 85.38L925.14 83.22zM921.45 84.3 a4.13 4.13 0 1 0 8.26 0 a4.13 4.13 0 1 0 -8.26 0zM824.62 107.69 a44.5 44.5 0 1 0 89 0 a44.5 44.5 0 1 0 -89 0z" fill="rgba(34, 119, 113, 1)"></path><path d="M913.62 107.81 A43.496 43.496 0 0 1 846.85 146.2M846.85 146.2 A88.992 88.992 0 0 0 913.62 107.81" fill="#1b5f5a" fill-rule="nonzero"></path><path d="M851.53 132.69 a8.9 8.9 0 1 0 17.8 0 a8.9 8.9 0 1 0 -17.8 0zM835.33 114.3 a7.56 7.56 0 1 0 15.12 0 a7.56 7.56 0 1 0 -15.12 0zM908.22 114.74 a2.22 2.22 0 1 0 4.44 0 a2.22 2.22 0 1 0 -4.44 0zM849.89 79.49 a8.9 8.9 0 1 0 17.8 0 a8.9 8.9 0 1 0 -17.8 0zM876.13 73.63 a2.67 2.67 0 1 0 5.34 0 a2.67 2.67 0 1 0 -5.34 0zM874.48 89.02 a2.67 2.67 0 1 0 5.34 0 a2.67 2.67 0 1 0 -5.34 0zM882.08 134.9 a8.9 8.9 0 1 0 17.8 0 a8.9 8.9 0 1 0 -17.8 0zM889.59 88.5 a8.9 8.9 0 1 0 17.8 0 a8.9 8.9 0 1 0 -17.8 0zM876.34 116.15 a3.56 3.56 0 1 0 7.12 0 a3.56 3.56 0 1 0 -7.12 0zM862.69 99.2 a2.67 2.67 0 1 0 5.34 0 a2.67 2.67 0 1 0 -5.34 0z" fill="#1b5f5a" fill-rule="nonzero"></path><path d="M296.16 592.5L296.16 594.36L311.21 594.36L311.21 592.5zM307.91 593.43 a3.3 3.3 0 1 0 6.6 0 a3.3 3.3 0 1 0 -6.6 0zM293.81 606.19L293.1 607.91L307.39 613.83L308.1 612.11zM304.45 612.97 a3.3 3.3 0 1 0 6.6 0 a3.3 3.3 0 1 0 -6.6 0zM286.4 617.93L285.08 619.25L294.85 629.02L296.16 627.7zM292.2 628.36 a3.3 3.3 0 1 0 6.6 0 a3.3 3.3 0 1 0 -6.6 0zM275.06 625.95L273.33 626.66L276.43 634.13L278.15 633.41zM273.99 633.77 a3.3 3.3 0 1 0 6.6 0 a3.3 3.3 0 1 0 -6.6 0zM261.51 629.01L259.65 629.01L259.65 644.4L261.51 644.4zM257.28 644.4 a3.3 3.3 0 1 0 6.6 0 a3.3 3.3 0 1 0 -6.6 0zM247.82 626.66L246.1 625.95L242.84 633.82L244.56 634.53zM240.4 634.18 a3.3 3.3 0 1 0 6.6 0 a3.3 3.3 0 1 0 -6.6 0zM236.07 619.25L234.76 617.93L229.54 623.14L230.86 624.46zM226.9 623.8 a3.3 3.3 0 1 0 6.6 0 a3.3 3.3 0 1 0 -6.6 0zM228.06 607.91L227.34 606.19L218.73 609.75L219.45 611.47zM215.79 610.61 a3.3 3.3 0 1 0 6.6 0 a3.3 3.3 0 1 0 -6.6 0zM224.99 594.36L224.99 592.5L216.35 592.5L216.35 594.36zM213.05 593.43 a3.3 3.3 0 1 0 6.6 0 a3.3 3.3 0 1 0 -6.6 0zM227.34 580.67L228.06 578.95L215.16 573.61L214.45 575.33zM211.5 574.47 a3.3 3.3 0 1 0 6.6 0 a3.3 3.3 0 1 0 -6.6 0zM234.76 568.93L236.07 567.61L232.47 564L231.15 565.32zM228.51 564.66 a3.3 3.3 0 1 0 6.6 0 a3.3 3.3 0 1 0 -6.6 0zM246.1 560.91L247.82 560.2L245.05 553.52L243.33 554.23zM240.89 553.87 a3.3 3.3 0 1 0 6.6 0 a3.3 3.3 0 1 0 -6.6 0zM259.65 557.85L261.51 557.85L261.51 547.22L259.65 547.22zM257.28 547.22 a3.3 3.3 0 1 0 6.6 0 a3.3 3.3 0 1 0 -6.6 0zM273.33 560.2L275.06 560.91L279.38 550.46L277.66 549.75zM275.22 550.1 a3.3 3.3 0 1 0 6.6 0 a3.3 3.3 0 1 0 -6.6 0zM285.08 567.61L286.4 568.93L295.75 559.58L294.43 558.26zM291.79 558.92 a3.3 3.3 0 1 0 6.6 0 a3.3 3.3 0 1 0 -6.6 0zM293.1 578.95L293.81 580.67L304.72 576.15L304.01 574.43zM301.06 575.29 a3.3 3.3 0 1 0 6.6 0 a3.3 3.3 0 1 0 -6.6 0zM224.98 593.43 a35.6 35.6 0 1 0 71.2 0 a35.6 35.6 0 1 0 -71.2 0z" fill="rgba(34, 119, 113, 1)"></path><path d="M225.03 595.3 A34.5968 34.5968 0 0 1 276.67 561.68M276.67 561.68 A71.1936 71.1936 0 0 0 225.03 595.3" fill="#1b5f5a" fill-rule="nonzero"></path><path d="M269.87 618.58 a6.05 6.05 0 1 0 12.1 0 a6.05 6.05 0 1 0 -12.1 0zM271.83 600.34 a4.98 4.98 0 1 0 9.96 0 a4.98 4.98 0 1 0 -9.96 0zM225.75 599.52 a4.27 4.27 0 1 0 8.54 0 a4.27 4.27 0 1 0 -8.54 0zM285.49 578.9 a3.56 3.56 0 1 0 7.12 0 a3.56 3.56 0 1 0 -7.12 0zM235.39 570.68 a4.98 4.98 0 1 0 9.96 0 a4.98 4.98 0 1 0 -9.96 0zM245.14 619.88 a7.12 7.12 0 1 0 14.24 0 a7.12 7.12 0 1 0 -14.24 0zM239.44 592.03 a2.85 2.85 0 1 0 5.7 0 a2.85 2.85 0 1 0 -5.7 0zM276.82 571.88 a1.78 1.78 0 1 0 3.56 0 a1.78 1.78 0 1 0 -3.56 0zM261.54 575.94 a4.27 4.27 0 1 0 8.54 0 a4.27 4.27 0 1 0 -8.54 0zM248.73 600.76 a2.49 2.49 0 1 0 4.98 0 a2.49 2.49 0 1 0 -4.98 0z" fill="#1b5f5a" fill-rule="nonzero"></path><path d="M537.2 276.87L537.2 278.74L549.23 278.74L549.23 276.87zM545.93 277.81 a3.3 3.3 0 1 0 6.6 0 a3.3 3.3 0 1 0 -6.6 0zM534.84 290.56L534.13 292.28L542.1 295.59L542.82 293.86zM539.16 294.73 a3.3 3.3 0 1 0 6.6 0 a3.3 3.3 0 1 0 -6.6 0zM527.43 302.31L526.12 303.63L529.88 307.4L531.2 306.08zM527.24 306.74 a3.3 3.3 0 1 0 6.6 0 a3.3 3.3 0 1 0 -6.6 0zM516.09 310.32L514.37 311.04L517.62 318.88L519.34 318.17zM515.18 318.53 a3.3 3.3 0 1 0 6.6 0 a3.3 3.3 0 1 0 -6.6 0zM502.54 313.39L500.68 313.39L500.68 319.83L502.54 319.83zM498.31 319.83 a3.3 3.3 0 1 0 6.6 0 a3.3 3.3 0 1 0 -6.6 0zM488.86 311.04L487.13 310.32L480.8 325.62L482.52 326.34zM478.36 325.98 a3.3 3.3 0 1 0 6.6 0 a3.3 3.3 0 1 0 -6.6 0zM477.11 303.63L475.79 302.31L465.2 312.9L466.52 314.22zM462.56 313.56 a3.3 3.3 0 1 0 6.6 0 a3.3 3.3 0 1 0 -6.6 0zM469.09 292.28L468.38 290.56L460.19 293.95L460.91 295.67zM457.25 294.81 a3.3 3.3 0 1 0 6.6 0 a3.3 3.3 0 1 0 -6.6 0zM466.03 278.74L466.03 276.87L453.1 276.87L453.1 278.74zM449.8 277.81 a3.3 3.3 0 1 0 6.6 0 a3.3 3.3 0 1 0 -6.6 0zM468.38 265.05L469.09 263.33L461.92 260.36L461.21 262.08zM458.27 261.22 a3.3 3.3 0 1 0 6.6 0 a3.3 3.3 0 1 0 -6.6 0zM475.79 253.3L477.11 251.98L468.71 243.58L467.39 244.9zM464.75 244.24 a3.3 3.3 0 1 0 6.6 0 a3.3 3.3 0 1 0 -6.6 0zM487.13 245.29L488.86 244.57L485.21 235.78L483.49 236.49zM481.05 236.13 a3.3 3.3 0 1 0 6.6 0 a3.3 3.3 0 1 0 -6.6 0zM500.68 242.22L502.54 242.22L502.54 225.34L500.68 225.34zM498.31 225.34 a3.3 3.3 0 1 0 6.6 0 a3.3 3.3 0 1 0 -6.6 0zM514.37 244.57L516.09 245.29L521.18 233.01L519.45 232.29zM517.02 232.65 a3.3 3.3 0 1 0 6.6 0 a3.3 3.3 0 1 0 -6.6 0zM526.12 251.98L527.43 253.3L537.59 243.15L536.27 241.83zM533.63 242.49 a3.3 3.3 0 1 0 6.6 0 a3.3 3.3 0 1 0 -6.6 0zM534.13 263.33L534.84 265.05L547.48 259.81L546.77 258.09zM543.83 258.95 a3.3 3.3 0 1 0 6.6 0 a3.3 3.3 0 1 0 -6.6 0zM466.01 277.81 a35.6 35.6 0 1 0 71.2 0 a35.6 35.6 0 1 0 -71.2 0z" fill="rgba(34, 119, 113, 1)"></path><path d="M478.85 305.17 A34.5968 34.5968 0 0 1 489.23 244.43M489.23 244.43 A71.1936 71.1936 0 0 0 478.85 305.17" fill="#1b5f5a" fill-rule="nonzero"></path><path d="M472.39 291.12 a7.12 7.12 0 1 0 14.24 0 a7.12 7.12 0 1 0 -14.24 0zM486.73 307.54 a3.56 3.56 0 1 0 7.12 0 a3.56 3.56 0 1 0 -7.12 0zM483.19 269.07 a7.12 7.12 0 1 0 14.24 0 a7.12 7.12 0 1 0 -14.24 0zM467.52 268.48 a3.92 3.92 0 1 0 7.84 0 a3.92 3.92 0 1 0 -7.84 0zM508.89 261.43 a7.12 7.12 0 1 0 14.24 0 a7.12 7.12 0 1 0 -14.24 0zM501.68 284.11 a7.12 7.12 0 1 0 14.24 0 a7.12 7.12 0 1 0 -14.24 0zM522.17 277.85 a2.85 2.85 0 1 0 5.7 0 a2.85 2.85 0 1 0 -5.7 0zM501.3 248.1 a3.2 3.2 0 1 0 6.4 0 a3.2 3.2 0 1 0 -6.4 0zM507.47 311.13 a1.42 1.42 0 1 0 2.84 0 a1.42 1.42 0 1 0 -2.84 0zM484.94 249.68 a4.63 4.63 0 1 0 9.26 0 a4.63 4.63 0 1 0 -9.26 0z" fill="#1b5f5a" fill-rule="nonzero"></path><path d="M1271.7 554.73L1271.7 557.99L1295.45 557.99L1295.45 554.73zM1289.67 556.36 a5.78 5.78 0 1 0 11.56 0 a5.78 5.78 0 1 0 -11.56 0zM1267.58 578.68L1266.33 581.7L1279.64 587.21L1280.89 584.19zM1274.48 585.7 a5.78 5.78 0 1 0 11.56 0 a5.78 5.78 0 1 0 -11.56 0zM1254.61 599.24L1252.31 601.55L1268.98 618.22L1271.29 615.91zM1264.35 617.07 a5.78 5.78 0 1 0 11.56 0 a5.78 5.78 0 1 0 -11.56 0zM1234.76 613.27L1231.75 614.52L1241.92 639.07L1244.93 637.83zM1237.65 638.45 a5.78 5.78 0 1 0 11.56 0 a5.78 5.78 0 1 0 -11.56 0zM1211.06 618.63L1207.8 618.63L1207.8 644.95L1211.06 644.95zM1203.65 644.95 a5.78 5.78 0 1 0 11.56 0 a5.78 5.78 0 1 0 -11.56 0zM1187.1 614.52L1184.09 613.27L1180.13 622.83L1183.14 624.08zM1175.85 623.45 a5.78 5.78 0 1 0 11.56 0 a5.78 5.78 0 1 0 -11.56 0zM1166.55 601.55L1164.24 599.24L1144.84 618.64L1147.15 620.94zM1140.22 619.79 a5.78 5.78 0 1 0 11.56 0 a5.78 5.78 0 1 0 -11.56 0zM1152.52 581.7L1151.27 578.68L1141.34 582.8L1142.59 585.81zM1136.18 584.3 a5.78 5.78 0 1 0 11.56 0 a5.78 5.78 0 1 0 -11.56 0zM1147.15 557.99L1147.15 554.73L1126.96 554.73L1126.96 557.99zM1121.18 556.36 a5.78 5.78 0 1 0 11.56 0 a5.78 5.78 0 1 0 -11.56 0zM1151.27 534.04L1152.52 531.02L1124.81 519.55L1123.56 522.56zM1118.41 521.05 a5.78 5.78 0 1 0 11.56 0 a5.78 5.78 0 1 0 -11.56 0zM1164.24 513.48L1166.55 511.17L1158.87 503.49L1156.56 505.8zM1151.93 504.65 a5.78 5.78 0 1 0 11.56 0 a5.78 5.78 0 1 0 -11.56 0zM1184.09 499.45L1187.1 498.2L1177.14 474.15L1174.13 475.4zM1169.85 474.78 a5.78 5.78 0 1 0 11.56 0 a5.78 5.78 0 1 0 -11.56 0zM1207.8 494.09L1211.06 494.09L1211.06 485.81L1207.8 485.81zM1203.65 485.81 a5.78 5.78 0 1 0 11.56 0 a5.78 5.78 0 1 0 -11.56 0zM1231.75 498.2L1234.76 499.45L1244.15 476.79L1241.14 475.54zM1236.86 476.16 a5.78 5.78 0 1 0 11.56 0 a5.78 5.78 0 1 0 -11.56 0zM1252.31 511.17L1254.61 513.48L1262.5 505.59L1260.19 503.29zM1255.56 504.44 a5.78 5.78 0 1 0 11.56 0 a5.78 5.78 0 1 0 -11.56 0zM1266.33 531.02L1267.58 534.04L1275.4 530.8L1274.15 527.78zM1268.99 529.29 a5.78 5.78 0 1 0 11.56 0 a5.78 5.78 0 1 0 -11.56 0zM1147.14 556.36 a62.29 62.29 0 1 0 124.58 0 a62.29 62.29 0 1 0 -124.58 0z" fill="rgba(34, 119, 113, 1)"></path><path d="M1271.43 550.36 A61.294399999999996 61.294399999999996 0 0 1 1183.74 613.11M1183.74 613.11 A124.58879999999999 124.58879999999999 0 0 0 1271.43 550.36" fill="#1b5f5a" fill-rule="nonzero"></path><path d="M1158.33 555.19 a12.46 12.46 0 1 0 24.92 0 a12.46 12.46 0 1 0 -24.92 0zM1206.78 566.66 a12.46 12.46 0 1 0 24.92 0 a12.46 12.46 0 1 0 -24.92 0zM1173.27 601.21 a9.97 9.97 0 1 0 19.94 0 a9.97 9.97 0 1 0 -19.94 0zM1171.34 526.88 a3.11 3.11 0 1 0 6.22 0 a3.11 3.11 0 1 0 -6.22 0zM1240.37 581.75 a4.98 4.98 0 1 0 9.96 0 a4.98 4.98 0 1 0 -9.96 0zM1205.1 531.06 a10.59 10.59 0 1 0 21.18 0 a10.59 10.59 0 1 0 -21.18 0zM1213.49 610.16 a6.85 6.85 0 1 0 13.7 0 a6.85 6.85 0 1 0 -13.7 0zM1239.64 533.33 a12.46 12.46 0 1 0 24.92 0 a12.46 12.46 0 1 0 -24.92 0zM1219.38 501.48 a4.98 4.98 0 1 0 9.96 0 a4.98 4.98 0 1 0 -9.96 0zM1158.02 581.22 a2.49 2.49 0 1 0 4.98 0 a2.49 2.49 0 1 0 -4.98 0z" fill="#1b5f5a" fill-rule="nonzero"></path></g><defs><mask id="SvgjsMask1012"><rect width="1440" height="660" fill="#ffffff"></rect></mask></defs></svg>